<svg xmlns="http://www.w3.org/2000/svg" width="21" height="21" viewBox="0 0 21 21">
    <g fill="none" fill-rule="evenodd">
        <circle cx="10.5" cy="10.5" r="10.5" fill="#C2C2C2"/>
        <g fill="#444">
            <path d="M14.916 7.07a.657.657 0 0 1-.657.658h-.656a.657.657 0 0 1-.656-.657v-.329c0-.362.294-.657.656-.657h.656c.363 0 .657.295.657.657v.329zM13.93 5.1H8.025v3.285h.814a2.664 2.664 0 0 1 3.622 0h2.783v5.255c0 .726-.588 1.314-1.313 1.314H7.37a1.313 1.313 0 0 1-1.313-1.314V5.605c-.402.36-.656.883-.656 1.466v6.57a1.97 1.97 0 0 0 1.969 1.97h6.562a1.97 1.97 0 0 0 1.969-1.97V7.07A1.97 1.97 0 0 0 13.931 5.1z"/>
            <path d="M7.256 8.385V5.1c-.23 0-.45.042-.656.114v3.17h.656zM9.366 10.7a1.334 1.334 0 1 1 2.667 0 1.334 1.334 0 0 1-2.667 0m3.331 0a2 2 0 1 0-1.998 2.001 2 2 0 0 0 1.998-2"/>
        </g>
    </g>
</svg>
