<svg xmlns="http://www.w3.org/2000/svg" width="21" height="21" viewBox="0 0 21 21">
    <g fill="none" fill-rule="evenodd">
        <circle cx="10.5" cy="10.5" r="10.5" fill="#C2C2C2"/>
        <path fill="#444" d="M6.41 7.79c.722 0 1.308-.534 1.308-1.194 0-.66-.586-1.196-1.308-1.196-.724 0-1.31.535-1.31 1.196 0 .66.586 1.194 1.31 1.194M5.4 15.473h2.348V8.7H5.4zM11.045 11.706c0-.777.367-1.536 1.246-1.536s1.095.76 1.095 1.518v3.699h2.338v-3.85c0-2.676-1.582-3.137-2.554-3.137-.972 0-1.508.329-2.125 1.125v-.912H8.7v6.774h2.345v-3.68z"/>
    </g>
</svg>
